<svg width="400" height="401" viewBox="0 0 400 401" fill="none" xmlns="http://www.w3.org/2000/svg">
<path d="M0 200.5C0 310.9 89.6 400.5 200 400.5C310.4 400.5 400 310.9 400 200.5C400 90.1 310.4 0.5 200 0.5C89.6 0.5 0 90.1 0 200.5ZM220.6 129.9L280.6 189.9C283.6 192.9 285 196.7 285 200.5C285 204.3 283.6 208.1 280.6 211.1L220.6 271.1C214.8 276.9 205.2 276.9 199.4 271.1C193.6 265.3 193.6 255.7 199.4 249.9L233.8 215.5L130 215.5C121.8 215.5 115 208.7 115 200.5C115 192.3 121.8 185.5 130 185.5L233.8 185.5L199.4 151.1C193.6 145.3 193.6 135.7 199.4 129.9C205.2 124.1 214.8 124.1 220.6 129.9Z" fill="#577BE5"/>
<rect x="100" y="103" width="205" height="179" fill="#577BE5"/>
<path d="M118.787 202.722C120.72 202.722 122.287 204.289 122.287 206.222C122.287 245.53 158.196 285.056 202.15 285.056C246.219 285.056 282.012 249.641 282.012 206.222C282.012 163.958 248.098 129.279 205.65 127.464V151.333C205.65 152.591 204.975 153.752 203.883 154.374C202.79 154.997 201.448 154.985 200.366 154.344L130.897 113.178C129.833 112.547 129.181 111.403 129.181 110.167C129.181 108.93 129.833 107.786 130.897 107.156L200.366 65.989C201.448 65.3479 202.79 65.3365 203.883 65.959C204.975 66.5816 205.65 67.7425 205.65 69V92.9963C267.308 94.824 316.8 144.782 316.8 206.222C316.8 268.821 265.424 319.5 202.15 319.5C170.68 319.5 142.002 308.942 121.162 289.393C100.291 269.815 87.5 241.422 87.5 206.222C87.5 204.289 89.067 202.722 91 202.722H118.787Z" fill="black" stroke="black" stroke-width="7" stroke-linejoin="round"/>
</svg>
